<mxfile host="app.diagrams.net" agent="Mozilla/5.0 (Windows NT 10.0; Win64; x64) AppleWebKit/537.36 (KHTML, like Gecko) Chrome/122.0.0.0 Safari/537.36" version="24.7.16">
  <diagram name="Page-1" id="QW8hZy0vqoB4EWyRL6TY">
    <mxGraphModel dx="1041" dy="1760" grid="1" gridSize="10" guides="1" tooltips="1" connect="1" arrows="1" fold="1" page="1" pageScale="1" pageWidth="850" pageHeight="1100" math="0" shadow="0">
      <root>
        <mxCell id="0" />
        <mxCell id="1" parent="0" />
        <mxCell id="bsLsJeDPsuY6xlqFyv93-83" value="&lt;font color=&quot;#b266ff&quot;&gt;6379&lt;/font&gt;" style="edgeStyle=orthogonalEdgeStyle;rounded=0;orthogonalLoop=1;jettySize=auto;html=1;flowAnimation=1;fillColor=#a20025;strokeColor=#6F0000;entryX=1;entryY=0.5;entryDx=0;entryDy=0;" edge="1" parent="1" source="bsLsJeDPsuY6xlqFyv93-10" target="bsLsJeDPsuY6xlqFyv93-15">
          <mxGeometry relative="1" as="geometry">
            <mxPoint x="130" y="510" as="targetPoint" />
            <Array as="points">
              <mxPoint x="120" y="510" />
            </Array>
          </mxGeometry>
        </mxCell>
        <mxCell id="bsLsJeDPsuY6xlqFyv93-10" value="User" style="rounded=0;whiteSpace=wrap;html=1;fillColor=#a20025;strokeColor=#6F0000;fontColor=#ffffff;" vertex="1" parent="1">
          <mxGeometry x="360" y="480" width="120" height="60" as="geometry" />
        </mxCell>
        <mxCell id="bsLsJeDPsuY6xlqFyv93-89" style="edgeStyle=orthogonalEdgeStyle;rounded=0;orthogonalLoop=1;jettySize=auto;html=1;entryX=0.5;entryY=1;entryDx=0;entryDy=0;flowAnimation=1;fillColor=#dae8fc;strokeColor=#6c8ebf;gradientColor=#7ea6e0;" edge="1" parent="1" source="bsLsJeDPsuY6xlqFyv93-11" target="bsLsJeDPsuY6xlqFyv93-15">
          <mxGeometry relative="1" as="geometry">
            <Array as="points">
              <mxPoint x="80" y="650" />
            </Array>
          </mxGeometry>
        </mxCell>
        <mxCell id="bsLsJeDPsuY6xlqFyv93-106" value="&lt;font color=&quot;#b266ff&quot;&gt;6379&lt;/font&gt;" style="edgeLabel;html=1;align=center;verticalAlign=middle;resizable=0;points=[];" vertex="1" connectable="0" parent="bsLsJeDPsuY6xlqFyv93-89">
          <mxGeometry x="0.1223" y="2" relative="1" as="geometry">
            <mxPoint y="-2" as="offset" />
          </mxGeometry>
        </mxCell>
        <mxCell id="bsLsJeDPsuY6xlqFyv93-11" value="Cart" style="rounded=0;whiteSpace=wrap;html=1;fillColor=#dae8fc;gradientColor=#7ea6e0;strokeColor=#6c8ebf;" vertex="1" parent="1">
          <mxGeometry x="360" y="620" width="120" height="60" as="geometry" />
        </mxCell>
        <mxCell id="bsLsJeDPsuY6xlqFyv93-12" value="Catalogue" style="rounded=0;whiteSpace=wrap;html=1;fillColor=#e1d5e7;strokeColor=#CC99FF;" vertex="1" parent="1">
          <mxGeometry x="360" y="340" width="120" height="60" as="geometry" />
        </mxCell>
        <mxCell id="bsLsJeDPsuY6xlqFyv93-86" style="edgeStyle=orthogonalEdgeStyle;rounded=0;orthogonalLoop=1;jettySize=auto;html=1;entryX=1;entryY=0.5;entryDx=0;entryDy=0;flowAnimation=1;fillColor=#fad7ac;strokeColor=#b46504;" edge="1" parent="1" source="bsLsJeDPsuY6xlqFyv93-13" target="bsLsJeDPsuY6xlqFyv93-17">
          <mxGeometry relative="1" as="geometry">
            <mxPoint y="770" as="targetPoint" />
          </mxGeometry>
        </mxCell>
        <mxCell id="bsLsJeDPsuY6xlqFyv93-103" value="&lt;font color=&quot;#b266ff&quot;&gt;3306&lt;/font&gt;" style="edgeLabel;html=1;align=center;verticalAlign=middle;resizable=0;points=[];" vertex="1" connectable="0" parent="bsLsJeDPsuY6xlqFyv93-86">
          <mxGeometry x="0.2388" y="2" relative="1" as="geometry">
            <mxPoint as="offset" />
          </mxGeometry>
        </mxCell>
        <mxCell id="bsLsJeDPsuY6xlqFyv93-92" style="edgeStyle=orthogonalEdgeStyle;rounded=0;orthogonalLoop=1;jettySize=auto;html=1;entryX=0.5;entryY=1;entryDx=0;entryDy=0;flowAnimation=1;fillColor=#fad7ac;strokeColor=#b46504;" edge="1" parent="1" source="bsLsJeDPsuY6xlqFyv93-13" target="bsLsJeDPsuY6xlqFyv93-11">
          <mxGeometry relative="1" as="geometry" />
        </mxCell>
        <mxCell id="bsLsJeDPsuY6xlqFyv93-107" value="&lt;font color=&quot;#b266ff&quot;&gt;8080&lt;/font&gt;" style="edgeLabel;html=1;align=center;verticalAlign=middle;resizable=0;points=[];" vertex="1" connectable="0" parent="bsLsJeDPsuY6xlqFyv93-92">
          <mxGeometry x="-0.0222" y="-1" relative="1" as="geometry">
            <mxPoint as="offset" />
          </mxGeometry>
        </mxCell>
        <mxCell id="bsLsJeDPsuY6xlqFyv93-13" value="Shipping" style="rounded=0;whiteSpace=wrap;html=1;fillColor=#fad7ac;strokeColor=#b46504;" vertex="1" parent="1">
          <mxGeometry x="360" y="740" width="120" height="60" as="geometry" />
        </mxCell>
        <mxCell id="bsLsJeDPsuY6xlqFyv93-87" style="edgeStyle=orthogonalEdgeStyle;rounded=0;orthogonalLoop=1;jettySize=auto;html=1;entryX=1;entryY=0.5;entryDx=0;entryDy=0;flowAnimation=1;fillColor=#b0e3e6;strokeColor=#0e8088;" edge="1" parent="1" source="bsLsJeDPsuY6xlqFyv93-14" target="bsLsJeDPsuY6xlqFyv93-18">
          <mxGeometry relative="1" as="geometry" />
        </mxCell>
        <mxCell id="bsLsJeDPsuY6xlqFyv93-14" value="Payment" style="rounded=0;whiteSpace=wrap;html=1;fillColor=#b1ddf0;strokeColor=#10739e;" vertex="1" parent="1">
          <mxGeometry x="360" y="860" width="120" height="60" as="geometry" />
        </mxCell>
        <mxCell id="bsLsJeDPsuY6xlqFyv93-15" value="redis" style="rounded=0;whiteSpace=wrap;html=1;fillColor=#a20025;fontColor=#ffffff;strokeColor=#6F0000;" vertex="1" parent="1">
          <mxGeometry x="40" y="485" width="80" height="50" as="geometry" />
        </mxCell>
        <mxCell id="bsLsJeDPsuY6xlqFyv93-16" value="mongo" style="rounded=0;whiteSpace=wrap;html=1;fillColor=#6d8764;fontColor=#ffffff;strokeColor=#3A5431;" vertex="1" parent="1">
          <mxGeometry x="40" y="350" width="80" height="53" as="geometry" />
        </mxCell>
        <mxCell id="bsLsJeDPsuY6xlqFyv93-17" value="mysql" style="rounded=0;whiteSpace=wrap;html=1;fillColor=#76608a;fontColor=#ffffff;strokeColor=#432D57;" vertex="1" parent="1">
          <mxGeometry x="40" y="745" width="80" height="50" as="geometry" />
        </mxCell>
        <mxCell id="bsLsJeDPsuY6xlqFyv93-18" value="rabbit" style="rounded=0;whiteSpace=wrap;html=1;fillColor=#bac8d3;strokeColor=#23445d;" vertex="1" parent="1">
          <mxGeometry x="40" y="865" width="80" height="50" as="geometry" />
        </mxCell>
        <mxCell id="bsLsJeDPsuY6xlqFyv93-28" value="Bastion" style="rounded=0;whiteSpace=wrap;html=1;fillColor=#ffe6cc;strokeColor=#d79b00;" vertex="1" parent="1">
          <mxGeometry x="40" y="200" width="120" height="60" as="geometry" />
        </mxCell>
        <mxCell id="bsLsJeDPsuY6xlqFyv93-29" value="VPN" style="rounded=0;whiteSpace=wrap;html=1;fillColor=#fad9d5;strokeColor=#ae4132;" vertex="1" parent="1">
          <mxGeometry x="680" y="200" width="120" height="60" as="geometry" />
        </mxCell>
        <mxCell id="bsLsJeDPsuY6xlqFyv93-46" style="edgeStyle=orthogonalEdgeStyle;rounded=0;orthogonalLoop=1;jettySize=auto;html=1;exitX=0.5;exitY=1;exitDx=0;exitDy=0;entryX=0.5;entryY=0;entryDx=0;entryDy=0;flowAnimation=1;fillColor=#d5e8d4;strokeColor=#82b366;" edge="1" parent="1" source="bsLsJeDPsuY6xlqFyv93-30" target="bsLsJeDPsuY6xlqFyv93-31">
          <mxGeometry relative="1" as="geometry" />
        </mxCell>
        <mxCell id="bsLsJeDPsuY6xlqFyv93-30" value="ALB" style="rounded=0;whiteSpace=wrap;html=1;fillColor=#dae8fc;strokeColor=#6c8ebf;" vertex="1" parent="1">
          <mxGeometry x="360" y="90" width="120" height="60" as="geometry" />
        </mxCell>
        <mxCell id="bsLsJeDPsuY6xlqFyv93-48" style="edgeStyle=orthogonalEdgeStyle;rounded=0;orthogonalLoop=1;jettySize=auto;html=1;flowAnimation=1;fillColor=#d5e8d4;gradientColor=#97d077;strokeColor=#82b366;" edge="1" parent="1">
          <mxGeometry relative="1" as="geometry">
            <mxPoint x="640" y="890" as="targetPoint" />
            <mxPoint x="480" y="240" as="sourcePoint" />
            <Array as="points">
              <mxPoint x="640" y="240" />
            </Array>
          </mxGeometry>
        </mxCell>
        <mxCell id="bsLsJeDPsuY6xlqFyv93-108" value="8080" style="edgeLabel;html=1;align=center;verticalAlign=middle;resizable=0;points=[];" vertex="1" connectable="0" parent="bsLsJeDPsuY6xlqFyv93-48">
          <mxGeometry x="-0.4329" y="-1" relative="1" as="geometry">
            <mxPoint as="offset" />
          </mxGeometry>
        </mxCell>
        <mxCell id="bsLsJeDPsuY6xlqFyv93-31" value="Frontend" style="rounded=0;whiteSpace=wrap;html=1;fillColor=#d5e8d4;strokeColor=#82b366;" vertex="1" parent="1">
          <mxGeometry x="360" y="210" width="120" height="40" as="geometry" />
        </mxCell>
        <mxCell id="bsLsJeDPsuY6xlqFyv93-40" value="" style="endArrow=classic;html=1;rounded=0;flowAnimation=1;fillColor=#fad9d5;strokeColor=#ae4132;exitX=0.511;exitY=1.133;exitDx=0;exitDy=0;exitPerimeter=0;" edge="1" parent="1" source="bsLsJeDPsuY6xlqFyv93-64">
          <mxGeometry width="50" height="50" relative="1" as="geometry">
            <mxPoint x="419" y="-60" as="sourcePoint" />
            <mxPoint x="420" y="-40" as="targetPoint" />
          </mxGeometry>
        </mxCell>
        <mxCell id="bsLsJeDPsuY6xlqFyv93-44" value="" style="endArrow=classic;html=1;rounded=0;flowAnimation=1;fillColor=#fad7ac;strokeColor=#b46504;entryX=0.567;entryY=-0.056;entryDx=0;entryDy=0;entryPerimeter=0;" edge="1" parent="1" target="bsLsJeDPsuY6xlqFyv93-29">
          <mxGeometry width="50" height="50" relative="1" as="geometry">
            <mxPoint x="420" y="-40" as="sourcePoint" />
            <mxPoint x="770" y="20" as="targetPoint" />
            <Array as="points">
              <mxPoint x="750" y="50" />
            </Array>
          </mxGeometry>
        </mxCell>
        <mxCell id="bsLsJeDPsuY6xlqFyv93-45" value="" style="endArrow=classic;html=1;rounded=0;flowAnimation=1;fillColor=#fad7ac;strokeColor=#b46504;entryX=0.439;entryY=-0.067;entryDx=0;entryDy=0;entryPerimeter=0;" edge="1" parent="1">
          <mxGeometry width="50" height="50" relative="1" as="geometry">
            <mxPoint x="420" y="-40" as="sourcePoint" />
            <mxPoint x="92.68000000000006" y="200.00000000000003" as="targetPoint" />
            <Array as="points">
              <mxPoint x="90" y="54.019999999999996" />
            </Array>
          </mxGeometry>
        </mxCell>
        <mxCell id="bsLsJeDPsuY6xlqFyv93-50" value="" style="endArrow=classic;html=1;rounded=0;entryX=1;entryY=0.5;entryDx=0;entryDy=0;flowAnimation=1;fillColor=#e1d5e7;strokeColor=#00CC00;" edge="1" parent="1" target="bsLsJeDPsuY6xlqFyv93-13">
          <mxGeometry width="50" height="50" relative="1" as="geometry">
            <mxPoint x="640" y="770" as="sourcePoint" />
            <mxPoint x="450" y="650" as="targetPoint" />
          </mxGeometry>
        </mxCell>
        <mxCell id="bsLsJeDPsuY6xlqFyv93-51" value="" style="endArrow=classic;html=1;rounded=0;entryX=1;entryY=0.5;entryDx=0;entryDy=0;flowAnimation=1;fillColor=#e1d5e7;strokeColor=#00CC00;" edge="1" parent="1" target="bsLsJeDPsuY6xlqFyv93-10">
          <mxGeometry width="50" height="50" relative="1" as="geometry">
            <mxPoint x="640" y="510" as="sourcePoint" />
            <mxPoint x="460" y="110" as="targetPoint" />
          </mxGeometry>
        </mxCell>
        <mxCell id="bsLsJeDPsuY6xlqFyv93-52" value="" style="endArrow=classic;html=1;rounded=0;entryX=1;entryY=0.5;entryDx=0;entryDy=0;flowAnimation=1;fillColor=#e1d5e7;strokeColor=#00FF00;" edge="1" parent="1" target="bsLsJeDPsuY6xlqFyv93-11">
          <mxGeometry width="50" height="50" relative="1" as="geometry">
            <mxPoint x="640" y="650" as="sourcePoint" />
            <mxPoint x="470" y="120" as="targetPoint" />
          </mxGeometry>
        </mxCell>
        <mxCell id="bsLsJeDPsuY6xlqFyv93-53" value="" style="endArrow=classic;html=1;rounded=0;entryX=0.983;entryY=0.633;entryDx=0;entryDy=0;flowAnimation=1;fillColor=#e1d5e7;strokeColor=#00FF00;entryPerimeter=0;" edge="1" parent="1" target="bsLsJeDPsuY6xlqFyv93-12">
          <mxGeometry width="50" height="50" relative="1" as="geometry">
            <mxPoint x="640" y="378" as="sourcePoint" />
            <mxPoint x="480" y="130" as="targetPoint" />
          </mxGeometry>
        </mxCell>
        <mxCell id="bsLsJeDPsuY6xlqFyv93-57" value="&lt;font color=&quot;#ff8000&quot;&gt;1194,943,443,22&lt;/font&gt;" style="text;html=1;align=center;verticalAlign=middle;resizable=0;points=[];autosize=1;strokeColor=none;fillColor=none;" vertex="1" parent="1">
          <mxGeometry x="660" width="110" height="30" as="geometry" />
        </mxCell>
        <mxCell id="bsLsJeDPsuY6xlqFyv93-59" value="" style="endArrow=classic;html=1;rounded=0;entryX=0.5;entryY=0;entryDx=0;entryDy=0;flowAnimation=1;fillColor=#b1ddf0;strokeColor=#66B2FF;" edge="1" parent="1" target="bsLsJeDPsuY6xlqFyv93-30">
          <mxGeometry width="50" height="50" relative="1" as="geometry">
            <mxPoint x="420" y="-40" as="sourcePoint" />
            <mxPoint x="490" y="140" as="targetPoint" />
          </mxGeometry>
        </mxCell>
        <mxCell id="bsLsJeDPsuY6xlqFyv93-60" value="" style="endArrow=classic;html=1;rounded=0;flowAnimation=1;fillColor=#e1d5e7;strokeColor=#00CC00;" edge="1" parent="1">
          <mxGeometry width="50" height="50" relative="1" as="geometry">
            <mxPoint x="639" y="890" as="sourcePoint" />
            <mxPoint x="480" y="890" as="targetPoint" />
          </mxGeometry>
        </mxCell>
        <mxCell id="bsLsJeDPsuY6xlqFyv93-61" value="&lt;font color=&quot;#007fff&quot;&gt;80,443&lt;/font&gt;" style="text;html=1;align=center;verticalAlign=middle;resizable=0;points=[];autosize=1;strokeColor=none;fillColor=none;" vertex="1" parent="1">
          <mxGeometry x="425" y="40" width="60" height="30" as="geometry" />
        </mxCell>
        <mxCell id="bsLsJeDPsuY6xlqFyv93-62" value="&lt;font color=&quot;#00ff00&quot;&gt;80&lt;/font&gt;" style="text;html=1;align=center;verticalAlign=middle;resizable=0;points=[];autosize=1;strokeColor=none;fillColor=none;" vertex="1" parent="1">
          <mxGeometry x="410" y="158" width="40" height="30" as="geometry" />
        </mxCell>
        <mxCell id="bsLsJeDPsuY6xlqFyv93-64" value="Internet" style="text;html=1;align=center;verticalAlign=middle;resizable=0;points=[];autosize=1;strokeColor=#b85450;fillColor=#f8cecc;" vertex="1" parent="1">
          <mxGeometry x="390" y="-190" width="60" height="30" as="geometry" />
        </mxCell>
        <mxCell id="bsLsJeDPsuY6xlqFyv93-71" value="&lt;font color=&quot;#ff8000&quot;&gt;22&lt;/font&gt;" style="text;html=1;align=center;verticalAlign=middle;resizable=0;points=[];autosize=1;strokeColor=none;fillColor=none;" vertex="1" parent="1">
          <mxGeometry x="90" y="18" width="40" height="30" as="geometry" />
        </mxCell>
        <mxCell id="bsLsJeDPsuY6xlqFyv93-74" value="" style="endArrow=classic;html=1;rounded=0;entryX=1;entryY=0.5;entryDx=0;entryDy=0;flowAnimation=1;fillColor=#e1d5e7;strokeColor=#9673a6;exitX=-0.028;exitY=0.622;exitDx=0;exitDy=0;exitPerimeter=0;" edge="1" parent="1" source="bsLsJeDPsuY6xlqFyv93-12" target="bsLsJeDPsuY6xlqFyv93-16">
          <mxGeometry width="50" height="50" relative="1" as="geometry">
            <mxPoint x="650" y="388" as="sourcePoint" />
            <mxPoint x="488" y="388" as="targetPoint" />
            <Array as="points">
              <mxPoint x="220" y="377" />
            </Array>
          </mxGeometry>
        </mxCell>
        <mxCell id="bsLsJeDPsuY6xlqFyv93-99" value="&lt;font color=&quot;#b266ff&quot;&gt;27017&lt;/font&gt;" style="edgeLabel;html=1;align=center;verticalAlign=middle;resizable=0;points=[];" vertex="1" connectable="0" parent="bsLsJeDPsuY6xlqFyv93-74">
          <mxGeometry x="0.3041" y="-1" relative="1" as="geometry">
            <mxPoint as="offset" />
          </mxGeometry>
        </mxCell>
        <mxCell id="bsLsJeDPsuY6xlqFyv93-84" value="" style="endArrow=classic;html=1;rounded=0;flowAnimation=1;fillColor=#a20025;strokeColor=#6F0000;" edge="1" parent="1">
          <mxGeometry width="50" height="50" relative="1" as="geometry">
            <mxPoint x="360" y="510" as="sourcePoint" />
            <mxPoint x="120" y="380" as="targetPoint" />
          </mxGeometry>
        </mxCell>
        <mxCell id="bsLsJeDPsuY6xlqFyv93-97" value="&lt;font color=&quot;#b266ff&quot;&gt;27017&lt;/font&gt;" style="edgeLabel;html=1;align=center;verticalAlign=middle;resizable=0;points=[];" vertex="1" connectable="0" parent="bsLsJeDPsuY6xlqFyv93-84">
          <mxGeometry x="0.2188" y="-1" relative="1" as="geometry">
            <mxPoint as="offset" />
          </mxGeometry>
        </mxCell>
        <mxCell id="bsLsJeDPsuY6xlqFyv93-91" value="" style="endArrow=classic;html=1;rounded=0;entryX=-0.025;entryY=0.389;entryDx=0;entryDy=0;entryPerimeter=0;flowAnimation=1;fillColor=#dae8fc;strokeColor=#6c8ebf;gradientColor=#7ea6e0;" edge="1" parent="1" target="bsLsJeDPsuY6xlqFyv93-12">
          <mxGeometry width="50" height="50" relative="1" as="geometry">
            <mxPoint x="357" y="650" as="sourcePoint" />
            <mxPoint x="480" y="600" as="targetPoint" />
            <Array as="points">
              <mxPoint x="280" y="363" />
            </Array>
          </mxGeometry>
        </mxCell>
        <mxCell id="bsLsJeDPsuY6xlqFyv93-100" value="&lt;font color=&quot;#b266ff&quot;&gt;8080&lt;/font&gt;" style="edgeLabel;html=1;align=center;verticalAlign=middle;resizable=0;points=[];" vertex="1" connectable="0" parent="bsLsJeDPsuY6xlqFyv93-91">
          <mxGeometry x="0.2784" y="-1" relative="1" as="geometry">
            <mxPoint as="offset" />
          </mxGeometry>
        </mxCell>
        <mxCell id="bsLsJeDPsuY6xlqFyv93-93" value="" style="endArrow=classic;html=1;rounded=0;flowAnimation=1;exitX=-0.025;exitY=0.4;exitDx=0;exitDy=0;exitPerimeter=0;fillColor=#b0e3e6;strokeColor=#0e8088;" edge="1" parent="1" source="bsLsJeDPsuY6xlqFyv93-14">
          <mxGeometry width="50" height="50" relative="1" as="geometry">
            <mxPoint x="240" y="890" as="sourcePoint" />
            <mxPoint x="420" y="680" as="targetPoint" />
            <Array as="points">
              <mxPoint x="290" y="730" />
            </Array>
          </mxGeometry>
        </mxCell>
        <mxCell id="bsLsJeDPsuY6xlqFyv93-102" value="&lt;font color=&quot;#b266ff&quot;&gt;8080&lt;/font&gt;" style="edgeLabel;html=1;align=center;verticalAlign=middle;resizable=0;points=[];" vertex="1" connectable="0" parent="bsLsJeDPsuY6xlqFyv93-93">
          <mxGeometry x="0.385" y="1" relative="1" as="geometry">
            <mxPoint as="offset" />
          </mxGeometry>
        </mxCell>
        <mxCell id="bsLsJeDPsuY6xlqFyv93-94" value="" style="endArrow=classic;html=1;rounded=0;entryX=0.5;entryY=1;entryDx=0;entryDy=0;flowAnimation=1;fillColor=#b0e3e6;strokeColor=#0e8088;" edge="1" parent="1" target="bsLsJeDPsuY6xlqFyv93-10">
          <mxGeometry width="50" height="50" relative="1" as="geometry">
            <mxPoint x="360" y="890" as="sourcePoint" />
            <mxPoint x="430" y="550" as="targetPoint" />
            <Array as="points">
              <mxPoint x="260" y="740" />
              <mxPoint x="260" y="580" />
            </Array>
          </mxGeometry>
        </mxCell>
        <mxCell id="bsLsJeDPsuY6xlqFyv93-101" value="&lt;font color=&quot;#b266ff&quot;&gt;8080&lt;/font&gt;" style="edgeLabel;html=1;align=center;verticalAlign=middle;resizable=0;points=[];" vertex="1" connectable="0" parent="bsLsJeDPsuY6xlqFyv93-94">
          <mxGeometry x="0.2099" y="1" relative="1" as="geometry">
            <mxPoint as="offset" />
          </mxGeometry>
        </mxCell>
        <mxCell id="bsLsJeDPsuY6xlqFyv93-95" value="Text" style="text;html=1;align=center;verticalAlign=middle;resizable=0;points=[];autosize=1;strokeColor=none;fillColor=none;" vertex="1" parent="1">
          <mxGeometry x="175" y="868" width="50" height="30" as="geometry" />
        </mxCell>
      </root>
    </mxGraphModel>
  </diagram>
</mxfile>
